<?xml version="1.0" standalone="no"?>
<!DOCTYPE svg PUBLIC "-//W3C//DTD SVG 20010904//EN"
 "http://www.w3.org/TR/2001/REC-SVG-20010904/DTD/svg10.dtd">
<svg version="1.0" xmlns="http://www.w3.org/2000/svg"
 width="297.000000pt" height="208.000000pt" viewBox="0 0 297.000000 208.000000"
 preserveAspectRatio="xMidYMid meet">

<g transform="translate(0.000000,208.000000) scale(0.100000,-0.100000)"
fill="#000000" stroke="none">
<path d="M1860 1407 c-29 -14 -46 -81 -56 -206 -3 -41 -8 -79 -11 -84 -10 -17
21 -27 83 -27 67 0 82 8 113 60 25 42 27 77 5 108 -15 21 -15 25 0 41 9 10 16
27 16 38 0 22 -52 73 -73 73 -7 0 -21 3 -32 5 -11 3 -31 -1 -45 -8z m73 -79
c14 -21 -7 -48 -37 -48 -19 0 -21 4 -18 36 4 29 8 35 25 32 11 -2 25 -10 30
-20z m11 -114 c13 -33 -30 -76 -66 -66 -15 3 -18 12 -16 36 3 30 8 33 69 45 4
0 10 -6 13 -15z"/>
<path d="M1698 1400 c-9 -6 -24 -31 -34 -58 -10 -26 -22 -54 -29 -62 -21 -28
-46 -118 -43 -152 2 -25 8 -33 23 -33 14 0 24 12 35 45 11 33 22 46 38 48 19
3 22 -1 22 -30 0 -19 6 -43 14 -53 13 -18 15 -17 31 20 27 61 30 159 7 225
-19 56 -34 67 -64 50z m8 -147 c-10 -10 -19 5 -10 18 6 11 8 11 12 0 2 -7 1
-15 -2 -18z"/>
<path d="M2076 1371 c-42 -62 -59 -116 -54 -176 5 -65 36 -105 79 -105 43 0
110 57 142 121 35 71 30 118 -19 167 -29 29 -39 33 -78 31 -40 -2 -49 -7 -70
-38z m114 -98 c0 -29 -15 -59 -43 -90 -28 -31 -37 -21 -37 41 0 39 6 60 21 80
20 26 22 26 40 10 11 -9 19 -28 19 -41z"/>
<path d="M2315 1390 c-3 -11 -4 -24 -1 -28 9 -15 -13 -188 -28 -217 -25 -49
-12 -58 68 -51 80 7 112 25 138 77 37 71 13 141 -71 212 -40 34 -96 37 -106 7z
m108 -90 c48 -57 44 -123 -9 -136 -45 -11 -57 12 -48 95 7 80 18 88 57 41z"/>
<path d="M2690 1360 c-19 -27 -40 -50 -46 -50 -5 0 -20 21 -32 46 -19 38 -25
44 -37 34 -21 -17 -18 -60 5 -90 11 -14 20 -29 20 -33 0 -5 -18 -34 -39 -65
-22 -32 -43 -70 -46 -87 -6 -27 -1 -25 56 35 l61 65 17 -25 c9 -14 28 -38 43
-55 36 -39 37 -16 3 61 -14 31 -22 61 -18 68 4 6 22 30 40 54 33 44 44 92 21
92 -7 0 -29 -23 -48 -50z"/>
<path d="M498 1273 l-3 -78 -118 -3 c-106 -2 -118 -4 -115 -20 3 -15 19 -17
121 -20 l118 -3 -3 -42 -3 -42 -179 -5 c-131 -4 -180 -8 -184 -17 -3 -10 36
-13 171 -13 193 0 201 -2 195 -62 l-3 -33 -117 -3 c-110 -2 -118 -4 -118 -22
0 -19 7 -20 120 -20 l120 0 0 -90 0 -90 80 0 c63 0 80 3 80 15 0 10 -16 15
-62 17 l-63 3 -3 282 -2 282 62 3 c50 2 63 6 66 21 3 15 -6 17 -77 17 l-80 0
-3 -77z"/>
<path d="M992 1333 c3 -15 16 -19 66 -21 l62 -3 -2 -282 -3 -282 -62 -3 c-47
-2 -63 -7 -63 -17 0 -12 17 -15 80 -15 l80 0 0 90 0 90 120 0 c113 0 120 1
120 20 0 18 -8 20 -117 22 l-118 3 0 45 0 45 183 3 c151 2 182 5 182 17 0 12
-31 15 -182 17 l-183 3 -3 43 -3 42 120 0 c114 0 121 1 121 20 0 18 -8 20
-117 22 l-118 3 -3 78 -3 77 -80 0 c-71 0 -80 -2 -77 -17z"/>
<path d="M903 1157 c-9 -9 -18 -34 -19 -55 -2 -20 -6 -74 -9 -119 l-6 -81 56
-7 c31 -4 58 -5 61 -2 14 13 -9 46 -36 52 -17 4 -30 10 -30 15 0 24 15 40 35
40 37 0 75 18 75 35 0 9 -9 15 -22 15 -46 0 -68 12 -68 35 0 19 7 24 40 30 22
4 43 11 46 16 21 35 -94 59 -123 26z"/>
<path d="M707 1152 c-9 -10 -23 -33 -32 -52 -8 -19 -19 -42 -24 -50 -16 -27
-33 -96 -29 -121 5 -35 31 -30 44 9 10 31 28 51 46 52 4 0 8 -17 10 -37 6 -70
40 -41 54 47 10 59 -20 170 -46 170 -4 0 -14 -8 -23 -18z m13 -108 c0 -8 -5
-12 -10 -9 -6 4 -8 11 -5 16 9 14 15 11 15 -7z"/>
<path d="M1612 968 c-6 -8 -12 -47 -14 -87 l-3 -74 29 -8 c16 -5 33 -6 37 -3
13 8 -1 32 -22 37 -28 7 -14 34 22 41 35 7 39 26 4 26 -35 0 -35 37 0 46 14 4
24 11 22 18 -5 16 -62 19 -75 4z"/>
<path d="M1855 954 c-14 -15 -25 -31 -25 -35 0 -5 -4 -9 -10 -9 -5 0 -10 14
-10 32 0 36 -16 28 -22 -11 -4 -35 -28 -39 -28 -6 0 20 -4 26 -17 23 -22 -4
-50 -105 -38 -134 6 -17 9 -15 22 16 l15 35 14 -27 c17 -32 39 -28 52 10 l9
27 12 -37 c7 -20 21 -40 31 -43 21 -7 60 10 60 26 0 6 -4 7 -10 4 -5 -3 -19
-1 -30 5 -15 8 -20 21 -20 49 0 46 18 64 54 55 20 -5 26 -2 26 10 0 15 -28 36
-50 36 -6 0 -22 -12 -35 -26z"/>
<path d="M2105 968 c-2 -7 -6 -38 -9 -68 -2 -30 -6 -66 -8 -80 -3 -21 1 -25
22 -22 45 4 78 23 90 52 16 37 7 62 -36 99 -38 33 -52 38 -59 19z m61 -63 c19
-29 10 -65 -16 -65 -26 0 -30 11 -23 53 7 43 16 46 39 12z"/>
<path d="M2242 967 c-7 -8 -15 -48 -18 -91 -7 -72 -6 -76 14 -76 11 0 27 -3
36 -6 24 -9 20 21 -6 38 -26 18 -18 33 22 41 37 8 39 25 3 29 -40 4 -42 34 -3
43 17 4 29 12 27 18 -5 18 -62 20 -75 4z"/>
<path d="M2340 961 c-13 -25 -13 -161 -1 -161 6 0 13 4 16 10 3 6 28 -3 59
-20 29 -17 56 -30 59 -30 20 0 1 24 -43 57 -27 20 -50 41 -50 46 0 5 11 18 25
29 31 24 32 52 3 72 -30 21 -55 20 -68 -3z"/>
<path d="M1965 943 c-10 -15 -20 -46 -23 -69 -3 -33 0 -46 17 -63 21 -21 22
-21 52 -4 80 46 77 163 -3 163 -17 0 -32 -9 -43 -27z m59 -74 c-19 -38 -34
-37 -34 4 0 43 20 65 37 41 10 -13 9 -22 -3 -45z"/>
</g>
</svg>
